<svg width="33" height="33" viewBox="0 0 33 33" fill="none" xmlns="http://www.w3.org/2000/svg">
<path d="M31.072 0.180176H1.61286C0.904403 0.180176 0.332031 0.752547 0.332031 1.46101V30.9201C0.332031 31.6286 0.904403 32.201 1.61286 32.201H31.072C31.7804 32.201 32.3528 31.6286 32.3528 30.9201V1.46101C32.3528 0.752547 31.7804 0.180176 31.072 0.180176ZM27.3736 9.52624H24.8159C22.8106 9.52624 22.4224 10.4789 22.4224 11.8798V14.9658H27.2095L26.5851 19.7969H22.4224V32.201H17.4311V19.8009H13.2564V14.9658H17.4311V11.4035C17.4311 7.26877 19.9568 5.01531 23.6472 5.01531C25.4163 5.01531 26.9333 5.1474 27.3776 5.20744V9.52624H27.3736Z" fill="#EF2779"/>
</svg>
