<svg width="33" height="33" viewBox="0 0 33 33" fill="none" xmlns="http://www.w3.org/2000/svg">
<path d="M31.0564 0.180176H1.59724C0.888778 0.180176 0.316406 0.752547 0.316406 1.46101V30.9201C0.316406 31.6286 0.888778 32.201 1.59724 32.201H31.0564C31.7648 32.201 32.3372 31.6286 32.3372 30.9201V1.46101C32.3372 0.752547 31.7648 0.180176 31.0564 0.180176ZM9.81457 27.4659H5.06349V12.184H9.81457V27.4659ZM7.44103 10.0946C6.89638 10.0946 6.36397 9.9331 5.91111 9.63051C5.45825 9.32792 5.10529 8.89784 4.89686 8.39465C4.68843 7.89146 4.6339 7.33777 4.74016 6.80359C4.84641 6.2694 5.10868 5.77872 5.49381 5.3936C5.87893 5.00848 6.36961 4.7462 6.90379 4.63995C7.43797 4.53369 7.99167 4.58823 8.49486 4.79665C8.99805 5.00508 9.42813 5.35804 9.73072 5.8109C10.0333 6.26376 10.1948 6.79617 10.1948 7.34082C10.1908 8.86181 8.95801 10.0946 7.44103 10.0946ZM27.6021 27.4659H22.855V20.0331C22.855 18.2599 22.823 15.9824 20.3854 15.9824C17.9158 15.9824 17.5356 17.9117 17.5356 19.905V27.4659H12.7925V12.184H17.3475V14.2733H17.4115C18.0439 13.0725 19.5929 11.8037 21.9064 11.8037C26.7175 11.8037 27.6021 14.9698 27.6021 19.0844V27.4659Z" fill="#EF2779"/>
</svg>
