<svg width="35" height="28" viewBox="0 0 35 28" fill="none" xmlns="http://www.w3.org/2000/svg">
<path d="M34.0048 3.87572C32.78 4.40407 31.4472 4.78431 30.0743 4.93241C31.4997 4.0856 32.5671 2.74779 33.0762 1.16997C31.7387 1.96564 30.2734 2.52358 28.7454 2.81904C28.1068 2.1363 27.3344 1.5924 26.4764 1.22123C25.6183 0.85006 24.693 0.659573 23.7582 0.661638C19.9757 0.661638 16.9338 3.72763 16.9338 7.49007C16.9338 8.01841 16.9978 8.54675 17.1019 9.05508C11.4382 8.75889 6.38691 6.05314 3.02873 1.91045C2.41683 2.95559 2.09618 4.1456 2.10013 5.35668C2.10013 7.72622 3.30491 9.81558 5.1421 11.0444C4.05942 11.0017 3.00208 10.7041 2.0561 10.1758V10.2599C2.0561 13.578 4.40162 16.3278 7.52765 16.9602C6.9407 17.1127 6.3369 17.1907 5.73048 17.1924C5.28619 17.1924 4.86592 17.1483 4.44165 17.0883C5.30621 19.7941 7.82384 21.7593 10.8218 21.8234C8.47626 23.6606 5.53836 24.7413 2.34829 24.7413C1.77592 24.7413 1.24757 24.7213 0.699219 24.6572C3.72518 26.5985 7.31551 27.7192 11.182 27.7192C23.7342 27.7192 30.6026 17.3204 30.6026 8.29459C30.6026 7.9984 30.6026 7.70221 30.5826 7.40601C31.9115 6.43338 33.0762 5.2286 34.0048 3.87572Z" fill="#EF2779"/>
</svg>
